<svg xmlns="http://www.w3.org/2000/svg" viewBox="0 0 500 500"><g id="freepik--background-complete--inject-6"><rect x="416.78" y="398.49" width="33.12" height="0.25" style="fill:#ebebeb"></rect><rect x="322.53" y="401.21" width="8.69" height="0.25" style="fill:#ebebeb"></rect><rect x="396.59" y="389.21" width="19.19" height="0.25" style="fill:#ebebeb"></rect><rect x="52.46" y="390.89" width="43.19" height="0.25" style="fill:#ebebeb"></rect><rect x="104.56" y="390.89" width="6.33" height="0.25" style="fill:#ebebeb"></rect><rect x="131.47" y="395.11" width="93.68" height="0.25" style="fill:#ebebeb"></rect><path d="M238.4,337.8H45.3a5.71,5.71,0,0,1-5.71-5.71V60.66A5.71,5.71,0,0,1,45.3,55H238.4a5.71,5.71,0,0,1,5.71,5.71V332.09A5.71,5.71,0,0,1,238.4,337.8ZM45.3,55.2a5.47,5.47,0,0,0-5.46,5.46V332.09a5.47,5.47,0,0,0,5.46,5.46H238.4a5.47,5.47,0,0,0,5.46-5.46V60.66a5.47,5.47,0,0,0-5.46-5.46Z" style="fill:#ebebeb"></path><path d="M454.7,337.8H261.6a5.71,5.71,0,0,1-5.71-5.71V60.66A5.71,5.71,0,0,1,261.6,55H454.7a5.71,5.71,0,0,1,5.71,5.71V332.09A5.71,5.71,0,0,1,454.7,337.8ZM261.6,55.2a5.47,5.47,0,0,0-5.46,5.46V332.09a5.47,5.47,0,0,0,5.46,5.46H454.7a5.47,5.47,0,0,0,5.46-5.46V60.66a5.47,5.47,0,0,0-5.46-5.46Z" style="fill:#ebebeb"></path><rect y="382.4" width="500" height="0.25" style="fill:#ebebeb"></rect><polygon points="80.55 232.6 80.55 223.15 101.2 232.6 101.2 223.15 121.85 232.6 121.85 223.15 142.5 232.6 142.5 223.15 163.15 232.6 163.15 223.15 183.8 232.6 183.8 223.15 204.45 232.6 204.45 223.15 225.1 232.6 225.1 223.15 245.75 232.6 245.75 223.15 266.4 232.6 266.4 223.15 285.94 232.09 286.6 230.67 264.84 220.71 264.84 230.16 244.19 220.71 244.19 230.16 223.53 220.71 223.53 230.16 202.88 220.71 202.88 230.16 182.23 220.71 182.23 230.16 161.58 220.71 161.58 230.16 140.93 220.71 140.93 230.16 120.28 220.71 120.28 230.16 99.63 220.71 99.63 230.16 78.98 220.71 78.98 230.16 59.44 221.22 58.79 222.64 80.55 232.6" style="fill:#f0f0f0"></polygon><path d="M57.94,220.76H295.08a2,2,0,0,1,1.28,3.47l-9.65,8.33H57.94Zm236.13,2.35H60.29v7.1H285.83Z" style="fill:#f5f5f5"></path><path d="M78,217.23h2V365.6h3.4V277.71h23.4V365.6h3.4V217.23h3.29V365.6h3.4V277.71h23.4V365.6h3.41V217.23h2v-3.4h-2V179h-37L81,213.83H78Zm28.8-33.9v30.5H84.27Zm30.93-.93-23.16,31.43h-4.37V182.4Zm2.56,31.43H117.76l22.48-30.5Zm0,3.4V269.6l-23-52.37Zm-23.4,57.07V221.91l23,52.39Zm-10.09-57.07v53.26L83.37,217.23ZM83.35,274.3V222.8L106,274.3Z" style="fill:#f0f0f0"></path><path d="M253.18,243l13.76-9.06a3.73,3.73,0,0,1,4.15,0L284.85,243l.43-.65-13.76-9.07a4.56,4.56,0,0,0-5,0l-13.76,9.07Z" style="fill:#e0e0e0"></path><polygon points="254.59 241.22 261.74 241.22 276.29 241.22 276.29 262.92 261.74 262.92 254.59 262.92 240.05 262.92 240.05 241.22 254.59 241.22" style="fill:#e6e6e6"></polygon><rect x="276.29" y="241.22" width="21.7" height="21.7" transform="translate(574.27 504.14) rotate(180)" style="fill:#f5f5f5"></rect><path d="M275.47,232.32v2.58h-2.59a1,1,0,1,1-2.06,0h-3.75a1,1,0,1,1-2.06,0h-2.73v-2.58Z" style="fill:#f0f0f0"></path><polygon points="437.86 279.67 437.86 273.57 424.52 279.67 424.52 273.57 411.18 279.67 411.18 273.57 397.83 279.67 397.83 273.57 384.49 279.67 384.49 273.57 371.15 279.67 371.15 273.57 357.81 279.67 357.81 273.57 344.47 279.67 344.47 273.57 331.13 279.67 331.13 273.57 317.78 279.67 317.78 273.57 305.16 279.34 304.74 278.42 318.8 271.99 318.8 278.1 332.14 271.99 332.14 278.1 345.48 271.99 345.48 278.1 358.82 271.99 358.82 278.1 372.16 271.99 372.16 278.1 385.5 271.99 385.5 278.1 398.85 271.99 398.85 278.1 412.19 271.99 412.19 278.1 425.53 271.99 425.53 278.1 438.87 271.99 438.87 278.1 451.5 272.32 451.92 273.24 437.86 279.67" style="fill:#f5f5f5"></polygon><path d="M452.47,279.64H304.67l-6.24-5.38a1.27,1.27,0,0,1,.83-2.24H452.47Zm-147.24-1.52H451v-4.58h-151Z" style="fill:#f5f5f5"></path><path d="M439.54,267.55h-2L421,245H397.09v22.51H395.8v2.19h1.29V365.6h2.2V308.81h15.12V365.6h2.2V269.74h2.12V365.6h2.2V308.81h15.12V365.6h2.2V269.74h1.29Zm-4.09,0H420.93V247.84Zm-16.72-20.31v20.31h-2.82l-15-20.31Zm-19.44.6,14.52,19.71H399.29Zm14.85,21.9-14.85,33.83V269.74Zm-14.59,36.87,14.86-33.85v33.85ZM436,269.74l-15.1,34.41V269.74Zm-14.59,36.87,14.61-33.27v33.27Z" style="fill:#f5f5f5"></path><rect x="56.48" y="368.54" width="384.07" height="14.14" style="fill:#e6e6e6"></rect><rect x="47.53" y="362.1" width="399.69" height="8.53" style="fill:#f0f0f0"></rect><path d="M289,128.74c-2.24,1.59-.9,5.18,1.84,5.18h109c17.58,0-5.76-21.87-13.43-14.6s-11.39-32.73-29.86-17.4-23.61-8-35.37,4.67-25.71,6-27.07,16.66C293.16,130.92,291.2,127.22,289,128.74Z" style="fill:#f5f5f5"></path><path d="M67.75,110a1.66,1.66,0,0,0,1,2.95h62.06c10,0-3.28-12.45-7.64-8.31s-6.49-18.64-17-9.91-13.45-4.56-20.15,2.66-14.64,3.41-15.41,9.49C70.1,111.28,69,109.18,67.75,110Z" style="fill:#f0f0f0"></path><path d="M267.7,122.76H179.47a2.32,2.32,0,0,1-1.19-4.3,17,17,0,0,1,11.18-2.3c10.89,1.26.4-18.74,18.52-15.4s18.84,8.66,29.27,2.66,15.45,4.3,18.28,8.15c2.56,3.5,12.2,0,14.41,8.3A2.31,2.31,0,0,1,267.7,122.76Z" style="fill:#f0f0f0"></path><path d="M153.91,128.38H105.7a1.26,1.26,0,0,1-.64-2.35,9.34,9.34,0,0,1,6.1-1.26c6,.7.23-10.23,10.12-8.41s10.3,4.74,16,1.46,8.44,2.34,10,4.45c1.4,1.91,6.66,0,7.88,4.53A1.26,1.26,0,0,1,153.91,128.38Z" style="fill:#f5f5f5"></path><path d="M435.34,109h-48.2a1.26,1.26,0,0,1-.65-2.35,9.29,9.29,0,0,1,6.11-1.26c5.94.69.22-10.23,10.12-8.41s10.29,4.73,16,1.45,8.44,2.35,10,4.45c1.4,1.92,6.67,0,7.88,4.54A1.26,1.26,0,0,1,435.34,109Z" style="fill:#f5f5f5"></path></g><g id="freepik--Shadow--inject-6"><ellipse id="freepik--path--inject-6" cx="245.18" cy="412.39" rx="193.89" ry="11.32" style="fill:#f5f5f5"></ellipse></g><g id="freepik--Boat--inject-6"><polygon points="246.5 280.13 246.5 266.63 134 266.63 134 280.13 146.75 280.13 151.89 285.27 151.89 354.63 228.62 354.63 228.62 285.27 233.75 280.13 246.5 280.13" style="fill:#1B5AA7"></polygon><polygon points="246.5 280.13 246.5 266.63 134 266.63 134 280.13 146.75 280.13 151.89 285.27 151.89 354.63 228.62 354.63 228.62 285.27 233.75 280.13 246.5 280.13" style="fill:#fff;opacity:0.6000000000000001"></polygon><rect x="172.25" y="270.3" width="4" height="7.67" style="fill:#fff"></rect><rect x="204.25" y="270.3" width="4" height="7.67" style="fill:#fff"></rect><rect x="156.25" y="282.46" width="4" height="7.67" style="fill:#fff"></rect><rect x="188.25" y="282.46" width="4" height="7.67" style="fill:#fff"></rect><rect x="196.25" y="282.46" width="4" height="7.67" style="fill:#fff"></rect><rect x="212.25" y="282.46" width="4" height="7.67" style="fill:#fff"></rect><rect x="220.25" y="282.46" width="4" height="7.67" style="fill:#fff"></rect><rect x="172.25" y="294.63" width="4" height="7.67" style="fill:#fff"></rect><rect x="156.25" y="306.8" width="4" height="7.67" style="fill:#fff"></rect><rect x="180.25" y="306.8" width="4" height="7.67" style="fill:#fff"></rect><rect x="204.25" y="306.8" width="4" height="7.67" style="fill:#fff"></rect><rect x="220.25" y="306.8" width="4" height="7.67" style="fill:#fff"></rect><rect x="164.25" y="318.96" width="4" height="7.67" style="fill:#fff"></rect><rect x="196.25" y="318.96" width="4" height="7.67" style="fill:#fff"></rect><rect x="172.25" y="331.13" width="4" height="7.67" style="fill:#fff"></rect><rect x="212.25" y="331.13" width="4" height="7.67" style="fill:#fff"></rect><rect x="188.25" y="343.3" width="4" height="7.67" style="fill:#fff"></rect><rect x="130.54" y="330.1" width="27.71" height="27.71" style="fill:#1B5AA7"></rect><rect x="145.9" y="331.6" width="10.86" height="24.71" rx="0.79" style="fill:#fff;opacity:0.5"></rect><g style="opacity:0.2"><path d="M154.26,335.77H134.54a1,1,0,0,1-1-1h0a1,1,0,0,1,1-1h19.72a1,1,0,0,1,1,1h0A1,1,0,0,1,154.26,335.77Z"></path><path d="M154.26,341.88H134.54a1,1,0,0,1-1-1h0a1,1,0,0,1,1-1h19.72a1,1,0,0,1,1,1h0A1,1,0,0,1,154.26,341.88Z"></path><path d="M154.26,348H134.54a1,1,0,0,1-1-1h0a1,1,0,0,1,1-1h19.72a1,1,0,0,1,1,1h0A1,1,0,0,1,154.26,348Z"></path><path d="M154.26,354.09H134.54a1,1,0,0,1-1-1h0a1,1,0,0,1,1-1h19.72a1,1,0,0,1,1,1h0A1,1,0,0,1,154.26,354.09Z"></path></g><rect x="160.9" y="330.1" width="27.71" height="27.71" style="fill:#1B5AA7"></rect><rect x="160.9" y="330.1" width="27.71" height="27.71" style="opacity:0.5"></rect><rect x="176.25" y="331.6" width="10.86" height="24.71" rx="0.79" style="fill:#fff;opacity:0.5"></rect><g style="opacity:0.2"><path d="M184.61,335.77H164.89a1,1,0,0,1-1-1h0a1,1,0,0,1,1-1h19.72a1,1,0,0,1,1,1h0A1,1,0,0,1,184.61,335.77Z"></path><path d="M184.61,341.88H164.89a1,1,0,0,1-1-1h0a1,1,0,0,1,1-1h19.72a1,1,0,0,1,1,1h0A1,1,0,0,1,184.61,341.88Z"></path><path d="M184.61,348H164.89a1,1,0,0,1-1-1h0a1,1,0,0,1,1-1h19.72a1,1,0,0,1,1,1h0A1,1,0,0,1,184.61,348Z"></path><path d="M184.61,354.09H164.89a1,1,0,0,1-1-1h0a1,1,0,0,1,1-1h19.72a1,1,0,0,1,1,1h0A1,1,0,0,1,184.61,354.09Z"></path></g><rect x="191.25" y="330.1" width="27.71" height="27.71" style="fill:#1B5AA7"></rect><rect x="206.61" y="331.6" width="10.86" height="24.71" rx="0.79" style="fill:#fff;opacity:0.4"></rect><g style="opacity:0.2"><path d="M215,335.77H195.25a1,1,0,0,1-1-1h0a1,1,0,0,1,1-1H215a1,1,0,0,1,1,1h0A1,1,0,0,1,215,335.77Z"></path><path d="M215,341.88H195.25a1,1,0,0,1-1-1h0a1,1,0,0,1,1-1H215a1,1,0,0,1,1,1h0A1,1,0,0,1,215,341.88Z"></path><path d="M215,348H195.25a1,1,0,0,1-1-1h0a1,1,0,0,1,1-1H215a1,1,0,0,1,1,1h0A1,1,0,0,1,215,348Z"></path><path d="M215,354.09H195.25a1,1,0,0,1-1-1h0a1,1,0,0,1,1-1H215a1,1,0,0,1,1,1h0A1,1,0,0,1,215,354.09Z"></path></g><rect x="144.4" y="300.8" width="27.71" height="27.71" style="fill:#1B5AA7"></rect><rect x="159.75" y="302.3" width="10.86" height="24.71" rx="0.79" style="fill:#fff;opacity:0.5"></rect><g style="opacity:0.2"><path d="M168.11,306.47H148.39a1,1,0,0,1-1-1h0a1,1,0,0,1,1-1h19.72a1,1,0,0,1,1,1h0A1,1,0,0,1,168.11,306.47Z"></path><path d="M168.11,312.58H148.39a1,1,0,0,1-1-1h0a1,1,0,0,1,1-1h19.72a1,1,0,0,1,1,1h0A1,1,0,0,1,168.11,312.58Z"></path><path d="M168.11,318.69H148.39a1,1,0,0,1-1-1h0a1,1,0,0,1,1-1h19.72a1,1,0,0,1,1,1h0A1,1,0,0,1,168.11,318.69Z"></path><path d="M168.11,324.8H148.39a1,1,0,0,1-1-1h0a1,1,0,0,1,1-1h19.72a1,1,0,0,1,1,1h0A1,1,0,0,1,168.11,324.8Z"></path></g><rect x="174.75" y="300.8" width="27.71" height="27.71" style="fill:#1B5AA7"></rect><rect x="174.75" y="300.8" width="27.71" height="27.71" style="fill:#fff;opacity:0.30000000000000004"></rect><rect x="190.11" y="302.3" width="10.86" height="24.71" rx="0.79" style="fill:#fff;opacity:0.4"></rect><g style="opacity:0.2"><path d="M198.47,306.47H178.75a1,1,0,0,1-1-1h0a1,1,0,0,1,1-1h19.72a1,1,0,0,1,1,1h0A1,1,0,0,1,198.47,306.47Z"></path><path d="M198.47,312.58H178.75a1,1,0,0,1-1-1h0a1,1,0,0,1,1-1h19.72a1,1,0,0,1,1,1h0A1,1,0,0,1,198.47,312.58Z"></path><path d="M198.47,318.69H178.75a1,1,0,0,1-1-1h0a1,1,0,0,1,1-1h19.72a1,1,0,0,1,1,1h0A1,1,0,0,1,198.47,318.69Z"></path><path d="M198.47,324.8H178.75a1,1,0,0,1-1-1h0a1,1,0,0,1,1-1h19.72a1,1,0,0,1,1,1h0A1,1,0,0,1,198.47,324.8Z"></path></g><rect x="205.11" y="300.8" width="27.71" height="27.71" style="fill:#1B5AA7"></rect><rect x="220.46" y="302.3" width="10.86" height="24.71" rx="0.79" style="fill:#fff;opacity:0.5"></rect><g style="opacity:0.2"><path d="M228.82,306.47H209.11a1,1,0,0,1-1-1h0a1,1,0,0,1,1-1h19.71a1,1,0,0,1,1,1h0A1,1,0,0,1,228.82,306.47Z"></path><path d="M228.82,312.58H209.11a1,1,0,0,1-1-1h0a1,1,0,0,1,1-1h19.71a1,1,0,0,1,1,1h0A1,1,0,0,1,228.82,312.58Z"></path><path d="M228.82,318.69H209.11a1,1,0,0,1-1-1h0a1,1,0,0,1,1-1h19.71a1,1,0,0,1,1,1h0A1,1,0,0,1,228.82,318.69Z"></path><path d="M228.82,324.8H209.11a1,1,0,0,1-1-1h0a1,1,0,0,1,1-1h19.71a1,1,0,0,1,1,1h0A1,1,0,0,1,228.82,324.8Z"></path></g><rect x="221.61" y="330.1" width="27.71" height="27.71" style="fill:#1B5AA7"></rect><rect x="221.61" y="330.1" width="27.71" height="27.71" style="opacity:0.30000000000000004"></rect><rect x="236.97" y="331.6" width="10.86" height="24.71" rx="0.79" style="fill:#fff;opacity:0.5"></rect><g style="opacity:0.2"><path d="M245.32,335.77H225.61a1,1,0,0,1-1-1h0a1,1,0,0,1,1-1h19.71a1,1,0,0,1,1,1h0A1,1,0,0,1,245.32,335.77Z"></path><path d="M245.32,341.88H225.61a1,1,0,0,1-1-1h0a1,1,0,0,1,1-1h19.71a1,1,0,0,1,1,1h0A1,1,0,0,1,245.32,341.88Z"></path><path d="M245.32,348H225.61a1,1,0,0,1-1-1h0a1,1,0,0,1,1-1h19.71a1,1,0,0,1,1,1h0A1,1,0,0,1,245.32,348Z"></path><path d="M245.32,354.09H225.61a1,1,0,0,1-1-1h0a1,1,0,0,1,1-1h19.71a1,1,0,0,1,1,1h0A1,1,0,0,1,245.32,354.09Z"></path></g><path d="M190.25,412V341.36c-8.9,0-80.58,16-80.58,30.5,0,11.54,6.25,26.61,16.9,40.17Z" style="fill:#1B5AA7"></path><path d="M190.25,412V341.36c-8.9,0-80.58,16-80.58,30.5,0,11.54,6.25,26.61,16.9,40.17Z" style="fill:#fff;opacity:0.6000000000000001"></path><path d="M190.25,412V341.36c8.91,0,80.59,16,80.59,30.5,0,11.54-6.26,26.61-16.91,40.17Z" style="fill:#1B5AA7"></path><path d="M190.25,412V341.36c8.91,0,80.59,16,80.59,30.5,0,11.54-6.26,26.61-16.91,40.17Z" style="fill:#fff;opacity:0.5"></path><polygon points="190.25 412.86 118.71 412.86 119.38 408.36 123.38 406.2 184.17 407.86 190.25 409.53 190.25 412.86" style="fill:#1B5AA7"></polygon><path d="M190.25,347.44v-6.08c-8.9,0-80.58,16-80.58,30.5,0,.56,0,1.13,0,1.71C121.2,361,178,348.51,190.25,347.44Z" style="fill:#263238"></path><path d="M190.25,347.44v-6.08c-8.9,0-80.58,16-80.58,30.5,0,.56,0,1.13,0,1.71C121.2,361,178,348.51,190.25,347.44Z" style="fill:#fff;opacity:0.2"></path><polygon points="190.25 412.86 261.79 412.86 261.12 408.36 257.13 406.2 196.33 407.86 190.25 409.53 190.25 412.86" style="fill:#1B5AA7"></polygon><polygon points="190.25 412.86 261.79 412.86 261.12 408.36 257.13 406.2 196.33 407.86 190.25 409.53 190.25 412.86" style="opacity:0.30000000000000004"></polygon><path d="M190.25,347.44v-6.08c8.91,0,80.59,16,80.59,30.5,0,.56,0,1.13-.06,1.71C259.3,361,202.54,348.51,190.25,347.44Z" style="fill:#263238"></path><path d="M200.15,342.77l-9.9,21.87V341.36A71.06,71.06,0,0,1,200.15,342.77Z" style="fill:#fff;opacity:0.2"></path><polygon points="190.25 411.36 261.12 408.36 262.82 398.57 190.25 401.57 190.25 411.36" style="fill:#1B5AA7"></polygon><path d="M180.36,342.77l9.89,21.87V341.36A71,71,0,0,0,180.36,342.77Z" style="fill:#fff;opacity:0.30000000000000004"></path><polygon points="190.25 411.36 119.38 408.36 117.69 398.57 190.25 401.57 190.25 411.36" style="fill:#1B5AA7"></polygon><polygon points="190.25 411.36 119.38 408.36 117.69 398.57 190.25 401.57 190.25 411.36" style="fill:#fff;opacity:0.2"></polygon><path d="M204.41,356a3.06,3.06,0,1,0,2.72,3.05A2.9,2.9,0,0,0,204.41,356Zm0,4.82a1.79,1.79,0,1,1,1.59-1.77A1.7,1.7,0,0,1,204.41,360.83Z" style="fill:#1B5AA7"></path><path d="M200.38,366.6l.25-.22h0l0,.17c.69,2.9,3.46,3.88,6.27,4.56a5.73,5.73,0,0,1,1.07.66,5.15,5.15,0,0,1,.66-1.06c2.21-1.86,4.26-4,3.57-6.88a.85.85,0,0,0,0-.17h0l.32.08a.14.14,0,0,0,.15-.22l-.44-.64a.26.26,0,0,0-.46.08l-.24.85a.14.14,0,0,0,.22.15l.29-.19a6,6,0,0,1-3.21,5.15.7.7,0,0,1-1-.45l-1.77-7.19,2.35-.56-.14-.62-2.37.55-.28-1.15a1.13,1.13,0,0,0-1-2,1.14,1.14,0,0,0-.8,1.36,1.12,1.12,0,0,0,.86.84l.26,1.16-2.37.56.15.62,2.36-.55,1.61,7.23a.7.7,0,0,1-.69.85,6,6,0,0,1-5.17-3.19l.35,0a.14.14,0,0,0,.12-.24l-.59-.65a.26.26,0,0,0-.45.14l-.11.76A.14.14,0,0,0,200.38,366.6Zm4-7.84a.6.6,0,1,1,1.17-.27.6.6,0,0,1-1.17.27Z" style="fill:#263238"></path></g><g id="freepik--Buoy--inject-6"><path d="M70.19,381.69c-.38-1.79.86-3.07,2.65-3.45s3.45.28,3.83,2.07l.81,3.84L71,385.53Z" style="fill:#1B5AA7"></path><path d="M70.19,381.69c-.38-1.79.86-3.07,2.65-3.45s3.45.28,3.83,2.07l.81,3.84L71,385.53Z" style="fill:#fff;opacity:0.5"></path><path d="M87.69,406.69a8.61,8.61,0,1,1-16.84,3.58l-2.13-10,16.85-3.58Z" style="fill:#263238"></path><path d="M72.18,399.42l3.31-8.7,6.56,6.6.42-.08-5-13-.44.1-1.88,4.94-3.74-3.75-.43.09.74,13.85Zm5.14-13.49,3.43,9-5-5Zm-5.44,1.16,3,3-2.5,6.57Z" style="fill:#263238"></path><g style="opacity:0.8"><path d="M76.85,381.18l-.18-.87,0-.07-6.46,1.38a.2.2,0,0,0,0,.07l.18.87Z" style="fill:#fff"></path><rect x="70.6" y="382.8" width="6.63" height="0.96" transform="translate(-78.06 23.74) rotate(-12)" style="fill:#fff"></rect></g><rect x="70.03" y="384.47" width="8.48" height="1.01" transform="translate(-78.42 23.86) rotate(-12)" style="fill:#1B5AA7"></rect><rect x="67.47" y="397.06" width="19.35" height="2.89" transform="translate(-81.17 24.75) rotate(-12)" style="fill:#1B5AA7"></rect></g><g id="freepik--Crane--inject-6"><rect x="112.75" y="176.3" width="203.02" height="1" transform="translate(-39.49 63.77) rotate(-15.52)" style="fill:#1B5AA7"></rect><rect x="352.67" y="195.09" width="4.35" height="191.68" style="fill:#1B5AA7"></rect><rect x="386.91" y="195.09" width="4.35" height="191.68" style="fill:#1B5AA7"></rect><rect x="369.76" y="255.47" width="4.35" height="33.73" transform="translate(644.27 -99.61) rotate(90)" style="fill:#1B5AA7"></rect><polygon points="353.44 273.43 387.83 195.09 390.98 195.09 356.59 273.43 353.44 273.43" style="fill:#1B5AA7"></polygon><rect x="352.67" y="148.42" width="4.35" height="46.67" style="fill:#1B5AA7"></rect><polygon points="391.48 195.09 357.09 148.42 352.94 148.42 387.33 195.09 391.48 195.09" style="fill:#1B5AA7"></polygon><polygon points="390.49 216.89 390.49 204.82 364.11 216.89 364.11 204.82 337.74 216.89 337.74 204.82 311.36 216.89 311.36 204.82 284.98 216.89 284.98 204.82 258.6 216.89 258.6 204.82 232.22 216.89 232.22 204.82 205.85 216.89 205.85 204.82 179.47 216.89 179.47 204.82 153.09 216.89 153.09 204.82 128.13 216.24 127.3 214.42 155.09 201.71 155.09 213.78 181.47 201.71 181.47 213.78 207.85 201.71 207.85 213.78 234.22 201.71 234.22 213.78 260.6 201.71 260.6 213.78 286.98 201.71 286.98 213.78 313.36 201.71 313.36 213.78 339.74 201.71 339.74 213.78 366.11 201.71 366.11 213.78 392.49 201.71 392.49 213.78 417.45 202.35 418.28 204.17 390.49 216.89" style="fill:#263238"></polygon><polygon points="390.49 216.89 390.49 204.82 364.11 216.89 364.11 204.82 337.74 216.89 337.74 204.82 311.36 216.89 311.36 204.82 284.98 216.89 284.98 204.82 258.6 216.89 258.6 204.82 232.22 216.89 232.22 204.82 205.85 216.89 205.85 204.82 179.47 216.89 179.47 204.82 153.09 216.89 153.09 204.82 128.13 216.24 127.3 214.42 155.09 201.71 155.09 213.78 181.47 201.71 181.47 213.78 207.85 201.71 207.85 213.78 234.22 201.71 234.22 213.78 260.6 201.71 260.6 213.78 286.98 201.71 286.98 213.78 313.36 201.71 313.36 213.78 339.74 201.71 339.74 213.78 366.11 201.71 366.11 213.78 392.49 201.71 392.49 213.78 417.45 202.35 418.28 204.17 390.49 216.89" style="fill:#fff;opacity:0.4"></polygon><path d="M419.37,216.83H127.16L114.82,206.2a2.53,2.53,0,0,1,1.65-4.44h302.9Zm-291.1-3h288.1v-9.07H117.75Z" style="fill:#263238"></path><g style="opacity:0.6000000000000001"><path d="M419.37,216.83H127.16L114.82,206.2a2.53,2.53,0,0,1,1.65-4.44h302.9Zm-291.1-3h288.1v-9.07H117.75Z" style="fill:#fff"></path></g><rect x="331.76" y="128.73" width="4.35" height="43.73" transform="translate(484.53 -183.33) rotate(90)" style="fill:#1B5AA7"></rect><rect x="309.89" y="195.09" width="4.35" height="191.68" style="fill:#1B5AA7"></rect><rect x="309.89" y="148.42" width="4.35" height="46.67" style="fill:#1B5AA7"></rect><rect x="344.13" y="195.09" width="4.35" height="191.68" style="fill:#1B5AA7"></rect><rect x="326.53" y="254.97" width="4.35" height="34.73" transform="translate(601.04 -56.37) rotate(90)" style="fill:#1B5AA7"></rect><polygon points="348.7 195.09 314.31 148.42 310.16 148.42 344.55 195.09 348.7 195.09" style="fill:#1B5AA7"></polygon><polygon points="310.16 273.43 344.55 195.09 347.7 195.09 313.31 273.43 310.16 273.43" style="fill:#1B5AA7"></polygon><g style="opacity:0.30000000000000004"><rect x="309.89" y="195.09" width="4.35" height="191.68" style="fill:#fff"></rect><rect x="309.89" y="148.42" width="4.35" height="46.67" style="fill:#fff"></rect><rect x="344.13" y="195.09" width="4.35" height="191.68" style="fill:#fff"></rect><rect x="326.53" y="254.97" width="4.35" height="34.73" transform="translate(601.04 -56.37) rotate(90)" style="fill:#fff"></rect><polygon points="348.7 195.09 314.31 148.42 310.16 148.42 344.55 195.09 348.7 195.09" style="fill:#fff"></polygon><polygon points="310.16 273.43 344.55 195.09 347.7 195.09 313.31 273.43 310.16 273.43" style="fill:#fff"></polygon></g><rect x="367.76" y="171.22" width="4.35" height="47.73" transform="translate(565.03 -174.85) rotate(90)" style="fill:#263238"></rect><rect x="367.76" y="171.22" width="4.35" height="47.73" transform="translate(565.03 -174.85) rotate(90)" style="fill:#fff;opacity:0.30000000000000004"></rect><rect x="324.53" y="175.72" width="4.35" height="38.73" transform="translate(521.8 -131.61) rotate(90)" style="fill:#263238"></rect><rect x="324.53" y="175.72" width="4.35" height="38.73" transform="translate(521.8 -131.61) rotate(90)" style="fill:#fff;opacity:0.6000000000000001"></rect><path d="M186.19,219.83a1.32,1.32,0,1,1-1.31-1.31A1.32,1.32,0,0,1,186.19,219.83Z" style="fill:#1B5AA7"></path><circle cx="192.3" cy="219.83" r="1.32" style="fill:#1B5AA7"></circle><g style="opacity:0.2"><path d="M186.19,219.83a1.32,1.32,0,1,1-1.31-1.31A1.32,1.32,0,0,1,186.19,219.83Z"></path><circle cx="192.3" cy="219.83" r="1.32"></circle></g><path d="M208.73,230.14l-17.57-11.58a4.83,4.83,0,0,0-5.31,0l-17.58,11.58-.55-.84,17.58-11.58a5.81,5.81,0,0,1,6.4,0l17.58,11.58Z" style="fill:#263238"></path><polygon points="206.92 227.91 197.79 227.91 179.21 227.91 179.21 255.62 197.79 255.62 206.92 255.62 225.5 255.62 225.5 227.91 206.92 227.91" style="fill:#1B5AA7"></polygon><rect x="151.5" y="227.91" width="27.71" height="27.71" style="fill:#1B5AA7"></rect><rect x="151.5" y="227.91" width="27.71" height="27.71" style="fill:#fff;opacity:0.30000000000000004"></rect><rect x="166.86" y="229.41" width="10.86" height="24.71" rx="0.79" style="fill:#fff;opacity:0.2"></rect><g style="opacity:0.2"><path d="M175.22,233.57H155.5a1,1,0,0,1-1-1h0a1,1,0,0,1,1-1h19.72a1,1,0,0,1,1,1h0A1,1,0,0,1,175.22,233.57Z"></path><path d="M175.22,239.68H155.5a1,1,0,0,1-1-1h0a1,1,0,0,1,1-1h19.72a1,1,0,0,1,1,1h0A1,1,0,0,1,175.22,239.68Z"></path><path d="M175.22,245.79H155.5a1,1,0,0,1-1-1h0a1,1,0,0,1,1-1h19.72a1,1,0,0,1,1,1h0A1,1,0,0,1,175.22,245.79Z"></path><path d="M175.22,251.9H155.5a1,1,0,0,1-1-1h0a1,1,0,0,1,1-1h19.72a1,1,0,0,1,1,1h0A1,1,0,0,1,175.22,251.9Z"></path></g><path d="M201.26,251.62V231.9a1,1,0,0,1,1-1h0a1,1,0,0,1,1,1v19.72a1,1,0,0,1-1,1h0A1,1,0,0,1,201.26,251.62Z" style="opacity:0.2"></path><path d="M195.15,251.62V231.9a1,1,0,0,1,1-1h0a1,1,0,0,1,1,1v19.72a1,1,0,0,1-1,1h0A1,1,0,0,1,195.15,251.62Z" style="opacity:0.2"></path><path d="M189,251.62V231.9a1,1,0,0,1,1-1h0a1,1,0,0,1,1,1v19.72a1,1,0,0,1-1,1h0A1,1,0,0,1,189,251.62Z" style="opacity:0.2"></path><path d="M182.93,251.62V231.9a1,1,0,0,1,1-1h0a1,1,0,0,1,1,1v19.72a1,1,0,0,1-1,1h0A1,1,0,0,1,182.93,251.62Z" style="opacity:0.2"></path><path d="M219.83,251.62V231.9a1,1,0,0,1,1-1h0a1,1,0,0,1,1,1v19.72a1,1,0,0,1-1,1h0A1,1,0,0,1,219.83,251.62Z" style="opacity:0.2"></path><path d="M213.73,251.62V231.9a1,1,0,0,1,1-1h0a1,1,0,0,1,1,1v19.72a1,1,0,0,1-1,1h0A1,1,0,0,1,213.73,251.62Z" style="opacity:0.2"></path><path d="M207.62,251.62V231.9a1,1,0,0,1,1-1h0a1,1,0,0,1,1,1v19.72a1,1,0,0,1-1,1h0A1,1,0,0,1,207.62,251.62Z" style="opacity:0.2"></path><rect x="180.25" y="216.53" width="16.84" height="3.3" style="fill:#1B5AA7"></rect><rect x="287.04" y="391.14" width="135.38" height="21.25" style="fill:#263238"></rect><rect x="287.04" y="391.14" width="135.38" height="5.36" style="opacity:0.1"></rect><rect x="283.14" y="382.4" width="143.17" height="8.74" style="fill:#263238"></rect><rect x="283.14" y="382.4" width="143.17" height="8.74" style="fill:#263238"></rect></g><g id="freepik--Cargo--inject-6"><rect x="290.05" y="354.69" width="27.71" height="27.71" style="fill:#1B5AA7"></rect><rect x="305.4" y="356.19" width="10.86" height="24.71" rx="0.79" style="fill:#fff;opacity:0.5"></rect><g style="opacity:0.2"><path d="M313.76,360.35H294a1,1,0,0,1-1-1h0a1,1,0,0,1,1-1h19.72a1,1,0,0,1,1,1h0A1,1,0,0,1,313.76,360.35Z"></path><path d="M313.76,366.46H294a1,1,0,0,1-1-1h0a1,1,0,0,1,1-1h19.72a1,1,0,0,1,1,1h0A1,1,0,0,1,313.76,366.46Z"></path><path d="M313.76,372.57H294a1,1,0,0,1-1-1h0a1,1,0,0,1,1-1h19.72a1,1,0,0,1,1,1h0A1,1,0,0,1,313.76,372.57Z"></path><path d="M313.76,378.68H294a1,1,0,0,1-1-1h0a1,1,0,0,1,1-1h19.72a1,1,0,0,1,1,1h0A1,1,0,0,1,313.76,378.68Z"></path></g><rect x="317.76" y="354.69" width="27.71" height="27.71" style="fill:#1B5AA7"></rect><rect x="317.76" y="354.69" width="27.71" height="27.71" style="opacity:0.2"></rect><g style="opacity:0.2"><path d="M339.81,378.4V358.68a1,1,0,0,1,1-1h0a1,1,0,0,1,1,1V378.4a1,1,0,0,1-1,1h0A1,1,0,0,1,339.81,378.4Z"></path><path d="M333.7,378.4V358.68a1,1,0,0,1,1-1h0a1,1,0,0,1,1,1V378.4a1,1,0,0,1-1,1h0A1,1,0,0,1,333.7,378.4Z"></path><path d="M327.59,378.4V358.68a1,1,0,0,1,1-1h0a1,1,0,0,1,1,1V378.4a1,1,0,0,1-1,1h0A1,1,0,0,1,327.59,378.4Z"></path><path d="M321.48,378.4V358.68a1,1,0,0,1,1-1h0a1,1,0,0,1,1,1V378.4a1,1,0,0,1-1,1h0A1,1,0,0,1,321.48,378.4Z"></path></g><rect x="331.62" y="354.69" width="27.71" height="27.71" style="fill:#263238"></rect><rect x="331.62" y="354.69" width="27.71" height="27.71" style="fill:#fff;opacity:0.6000000000000001"></rect><rect x="346.97" y="356.19" width="10.86" height="24.71" rx="0.79" style="fill:#fff;opacity:0.5"></rect><g style="opacity:0.2"><path d="M355.33,360.35H335.61a1,1,0,0,1-1-1h0a1,1,0,0,1,1-1h19.72a1,1,0,0,1,1,1h0A1,1,0,0,1,355.33,360.35Z"></path><path d="M355.33,366.46H335.61a1,1,0,0,1-1-1h0a1,1,0,0,1,1-1h19.72a1,1,0,0,1,1,1h0A1,1,0,0,1,355.33,366.46Z"></path><path d="M355.33,372.57H335.61a1,1,0,0,1-1-1h0a1,1,0,0,1,1-1h19.72a1,1,0,0,1,1,1h0A1,1,0,0,1,355.33,372.57Z"></path><path d="M355.33,378.68H335.61a1,1,0,0,1-1-1h0a1,1,0,0,1,1-1h19.72a1,1,0,0,1,1,1h0A1,1,0,0,1,355.33,378.68Z"></path></g><rect x="359.33" y="354.69" width="27.71" height="27.71" style="fill:#263238"></rect><rect x="359.33" y="354.69" width="27.71" height="27.71" style="fill:#fff;opacity:0.4"></rect><g style="opacity:0.2"><path d="M381.37,378.4V358.68a1,1,0,0,1,1-1h0a1,1,0,0,1,1,1V378.4a1,1,0,0,1-1,1h0A1,1,0,0,1,381.37,378.4Z"></path><path d="M375.26,378.4V358.68a1,1,0,0,1,1-1h0a1,1,0,0,1,1,1V378.4a1,1,0,0,1-1,1h0A1,1,0,0,1,375.26,378.4Z"></path><path d="M369.16,378.4V358.68a1,1,0,0,1,1-1h0a1,1,0,0,1,1,1V378.4a1,1,0,0,1-1,1h0A1,1,0,0,1,369.16,378.4Z"></path><path d="M363.05,378.4V358.68a1,1,0,0,1,1-1h0a1,1,0,0,1,1,1V378.4a1,1,0,0,1-1,1h0A1,1,0,0,1,363.05,378.4Z"></path></g><rect x="367.06" y="354.69" width="27.71" height="27.71" style="fill:#1B5AA7"></rect><rect x="367.06" y="354.69" width="27.71" height="27.71" style="fill:#fff;opacity:0.2"></rect><rect x="382.42" y="356.19" width="10.86" height="24.71" rx="0.79" style="fill:#fff;opacity:0.5"></rect><g style="opacity:0.2"><path d="M390.78,360.35H371.06a1,1,0,0,1-1-1h0a1,1,0,0,1,1-1h19.72a1,1,0,0,1,1,1h0A1,1,0,0,1,390.78,360.35Z"></path><path d="M390.78,366.46H371.06a1,1,0,0,1-1-1h0a1,1,0,0,1,1-1h19.72a1,1,0,0,1,1,1h0A1,1,0,0,1,390.78,366.46Z"></path><path d="M390.78,372.57H371.06a1,1,0,0,1-1-1h0a1,1,0,0,1,1-1h19.72a1,1,0,0,1,1,1h0A1,1,0,0,1,390.78,372.57Z"></path><path d="M390.78,378.68H371.06a1,1,0,0,1-1-1h0a1,1,0,0,1,1-1h19.72a1,1,0,0,1,1,1h0A1,1,0,0,1,390.78,378.68Z"></path></g><rect x="394.77" y="354.69" width="27.71" height="27.71" style="fill:#1B5AA7"></rect><g style="opacity:0.2"><path d="M416.82,378.4V358.68a1,1,0,0,1,1-1h0a1,1,0,0,1,1,1V378.4a1,1,0,0,1-1,1h0A1,1,0,0,1,416.82,378.4Z"></path><path d="M410.71,378.4V358.68a1,1,0,0,1,1-1h0a1,1,0,0,1,1,1V378.4a1,1,0,0,1-1,1h0A1,1,0,0,1,410.71,378.4Z"></path><path d="M404.6,378.4V358.68a1,1,0,0,1,1-1h0a1,1,0,0,1,1,1V378.4a1,1,0,0,1-1,1h0A1,1,0,0,1,404.6,378.4Z"></path><path d="M398.49,378.4V358.68a1,1,0,0,1,1-1h0a1,1,0,0,1,1,1V378.4a1,1,0,0,1-1,1h0A1,1,0,0,1,398.49,378.4Z"></path></g><rect x="303.9" y="327.05" width="27.71" height="27.71" style="fill:#1B5AA7"></rect><rect x="303.9" y="327.05" width="27.71" height="27.71" style="fill:#fff;opacity:0.6000000000000001"></rect><rect x="319.26" y="328.55" width="10.86" height="24.71" rx="0.79" style="fill:#fff;opacity:0.5"></rect><g style="opacity:0.2"><path d="M327.62,332.71H307.9a1,1,0,0,1-1-1h0a1,1,0,0,1,1-1h19.72a1,1,0,0,1,1,1h0A1,1,0,0,1,327.62,332.71Z"></path><path d="M327.62,338.82H307.9a1,1,0,0,1-1-1h0a1,1,0,0,1,1-1h19.72a1,1,0,0,1,1,1h0A1,1,0,0,1,327.62,338.82Z"></path><path d="M327.62,344.93H307.9a1,1,0,0,1-1-1h0a1,1,0,0,1,1-1h19.72a1,1,0,0,1,1,1h0A1,1,0,0,1,327.62,344.93Z"></path><path d="M327.62,351H307.9a1,1,0,0,1-1-1h0a1,1,0,0,1,1-1h19.72a1,1,0,0,1,1,1h0A1,1,0,0,1,327.62,351Z"></path></g><rect x="331.62" y="327.05" width="27.71" height="27.71" style="fill:#1B5AA7"></rect><rect x="331.62" y="327.05" width="27.71" height="27.71" style="fill:#fff;opacity:0.4"></rect><g style="opacity:0.2"><path d="M353.66,350.76V331a1,1,0,0,1,1-1h0a1,1,0,0,1,1,1v19.72a1,1,0,0,1-1,1h0A1,1,0,0,1,353.66,350.76Z"></path><path d="M347.55,350.76V331a1,1,0,0,1,1-1h0a1,1,0,0,1,1,1v19.72a1,1,0,0,1-1,1h0A1,1,0,0,1,347.55,350.76Z"></path><path d="M341.44,350.76V331a1,1,0,0,1,1-1h0a1,1,0,0,1,1,1v19.72a1,1,0,0,1-1,1h0A1,1,0,0,1,341.44,350.76Z"></path><path d="M335.33,350.76V331a1,1,0,0,1,1-1h0a1,1,0,0,1,1,1v19.72a1,1,0,0,1-1,1h0A1,1,0,0,1,335.33,350.76Z"></path></g><rect x="347.55" y="327.05" width="27.71" height="27.71" style="fill:#263238"></rect><rect x="347.55" y="327.05" width="27.71" height="27.71" style="fill:#fff;opacity:0.6000000000000001"></rect><rect x="362.91" y="328.55" width="10.86" height="24.71" rx="0.79" style="fill:#fff;opacity:0.5"></rect><g style="opacity:0.2"><path d="M371.27,332.71H351.55a1,1,0,0,1-1-1h0a1,1,0,0,1,1-1h19.72a1,1,0,0,1,1,1h0A1,1,0,0,1,371.27,332.71Z"></path><path d="M371.27,338.82H351.55a1,1,0,0,1-1-1h0a1,1,0,0,1,1-1h19.72a1,1,0,0,1,1,1h0A1,1,0,0,1,371.27,338.82Z"></path><path d="M371.27,344.93H351.55a1,1,0,0,1-1-1h0a1,1,0,0,1,1-1h19.72a1,1,0,0,1,1,1h0A1,1,0,0,1,371.27,344.93Z"></path><path d="M371.27,351H351.55a1,1,0,0,1-1-1h0a1,1,0,0,1,1-1h19.72a1,1,0,0,1,1,1h0A1,1,0,0,1,371.27,351Z"></path></g><rect x="375.26" y="327.05" width="27.71" height="27.71" style="fill:#263238"></rect><rect x="375.26" y="327.05" width="27.71" height="27.71" style="fill:#fff;opacity:0.4"></rect><g style="opacity:0.2"><path d="M397.31,350.76V331a1,1,0,0,1,1-1h0a1,1,0,0,1,1,1v19.72a1,1,0,0,1-1,1h0A1,1,0,0,1,397.31,350.76Z"></path><path d="M391.2,350.76V331a1,1,0,0,1,1-1h0a1,1,0,0,1,1,1v19.72a1,1,0,0,1-1,1h0A1,1,0,0,1,391.2,350.76Z"></path><path d="M385.09,350.76V331a1,1,0,0,1,1-1h0a1,1,0,0,1,1,1v19.72a1,1,0,0,1-1,1h0A1,1,0,0,1,385.09,350.76Z"></path><path d="M379,350.76V331a1,1,0,0,1,1-1h0a1,1,0,0,1,1,1v19.72a1,1,0,0,1-1,1h0A1,1,0,0,1,379,350.76Z"></path></g><rect x="332.12" y="299.41" width="27.71" height="27.71" style="fill:#263238"></rect><rect x="332.12" y="299.41" width="27.71" height="27.71" style="fill:#fff;opacity:0.7000000000000001"></rect><rect x="347.47" y="300.91" width="10.86" height="24.71" rx="0.79" style="fill:#fff;opacity:0.5"></rect><g style="opacity:0.2"><path d="M355.83,305.07H336.11a1,1,0,0,1-1-1h0a1,1,0,0,1,1-1h19.72a1,1,0,0,1,1,1h0A1,1,0,0,1,355.83,305.07Z"></path><path d="M355.83,311.18H336.11a1,1,0,0,1-1-1h0a1,1,0,0,1,1-1h19.72a1,1,0,0,1,1,1h0A1,1,0,0,1,355.83,311.18Z"></path><path d="M355.83,317.29H336.11a1,1,0,0,1-1-1h0a1,1,0,0,1,1-1h19.72a1,1,0,0,1,1,1h0A1,1,0,0,1,355.83,317.29Z"></path><path d="M355.83,323.4H336.11a1,1,0,0,1-1-1h0a1,1,0,0,1,1-1h19.72a1,1,0,0,1,1,1h0A1,1,0,0,1,355.83,323.4Z"></path></g><rect x="359.83" y="299.41" width="27.71" height="27.71" style="fill:#263238"></rect><rect x="359.83" y="299.41" width="27.71" height="27.71" style="fill:#fff;opacity:0.5"></rect><g style="opacity:0.2"><path d="M381.87,323.12V303.4a1,1,0,0,1,1-1h0a1,1,0,0,1,1,1v19.72a1,1,0,0,1-1,1h0A1,1,0,0,1,381.87,323.12Z"></path><path d="M375.76,323.12V303.4a1,1,0,0,1,1-1h0a1,1,0,0,1,1,1v19.72a1,1,0,0,1-1,1h0A1,1,0,0,1,375.76,323.12Z"></path><path d="M369.66,323.12V303.4a1,1,0,0,1,1-1h0a1,1,0,0,1,1,1v19.72a1,1,0,0,1-1,1h0A1,1,0,0,1,369.66,323.12Z"></path><path d="M363.55,323.12V303.4a1,1,0,0,1,1-1h0a1,1,0,0,1,1,1v19.72a1,1,0,0,1-1,1h0A1,1,0,0,1,363.55,323.12Z"></path></g></g><g id="freepik--Water--inject-6"><path d="M410.25,415.63l.65-.73c-1.23.13-2.37.22-3.4.25-13.36.32-15.45-12.46-24.69-7.95s-29.7,7.7-39.88,7.95c-13.36.32-15.45-12.46-24.69-7.95s-29.69,7.7-39.87,7.95c-13.36.32-15.45-12.46-24.69-7.95s-29.7,7.7-39.88,7.95c-13.36.32-15.45-12.46-24.69-7.95s-29.69,7.7-39.87,7.95c-13.36.32-15.45-12.46-24.69-7.95-4.9,2.39-15.91,3.93-25.18,4.86l10,4.16c6.22.5,12,.69,15.21.11a22.33,22.33,0,0,1,10.28.42l5.3-.74h10.92l16.83-2.4,6.13,2.56,9.13.16L193,414.8l9.69.65,8.58,1.12,7.57-1,8.58-.89,11,1.29,10.92-.08,10.48-1,7.46.81,9.69.56,17.16-2.16L302.8,416l10.14.08,11.25-1.21h5.35l11.7,1.29,6.13-.48,11-1.52,10.47,2.16,9.47-.32,8.92-1.21,10.69.32,9.14,1.21Z" style="fill:#1B5AA7"></path><path d="M410.25,415.63l.65-.73c-1.23.13-2.37.22-3.4.25-13.36.32-15.45-12.46-24.69-7.95s-29.7,7.7-39.88,7.95c-13.36.32-15.45-12.46-24.69-7.95s-29.69,7.7-39.87,7.95c-13.36.32-15.45-12.46-24.69-7.95s-29.7,7.7-39.88,7.95c-13.36.32-15.45-12.46-24.69-7.95s-29.69,7.7-39.87,7.95c-13.36.32-15.45-12.46-24.69-7.95-4.9,2.39-15.91,3.93-25.18,4.86l10,4.16c6.22.5,12,.69,15.21.11a22.33,22.33,0,0,1,10.28.42l5.3-.74h10.92l16.83-2.4,6.13,2.56,9.13.16L193,414.8l9.69.65,8.58,1.12,7.57-1,8.58-.89,11,1.29,10.92-.08,10.48-1,7.46.81,9.69.56,17.16-2.16L302.8,416l10.14.08,11.25-1.21h5.35l11.7,1.29,6.13-.48,11-1.52,10.47,2.16,9.47-.32,8.92-1.21,10.69.32,9.14,1.21Z" style="fill:#fff;opacity:0.4"></path><path d="M439.07,412.86c-13.37,0-15.45,2-24.69,4.31s-29.69,3-39.86,3.13c-13.37.17-15.45-5.48-24.69-3.13s-29.7,3-39.88,3.13c-13.36.17-15.45-5.48-24.69-3.13s-29.7,3-39.87,3.13c-13.37.17-15.45-5.48-24.69-3.13s-29.7,3-39.88,3.13c-13.36.17-15.45-5.48-24.69-3.13s-29.7,3-39.88,3.13c-13.36.17-15.45-5.48-24.69-3.13s-40.27-4.31-40.27-4.31,31-2.08,40.27-8.32,11.33,11.44,24.69,11c10.18-.34,30.64-4.75,39.88-11s11.33,11.44,24.69,11c10.18-.34,30.64-4.75,39.88-11s11.32,11.44,24.69,11c10.17-.34,30.63-4.75,39.87-11s11.33,11.44,24.69,11c10.18-.34,30.64-4.75,39.88-11s11.32,11.44,24.69,11c10.17-.34,30.62-4.75,39.86-11S425.7,412.86,439.07,412.86Z" style="fill:#1B5AA7"></path><path d="M439.07,412.86c-13.37,0-15.45,2-24.69,4.31s-29.69,3-39.86,3.13c-13.37.17-15.45-5.48-24.69-3.13s-29.7,3-39.88,3.13c-13.36.17-15.45-5.48-24.69-3.13s-29.7,3-39.87,3.13c-13.37.17-15.45-5.48-24.69-3.13s-29.7,3-39.88,3.13c-13.36.17-15.45-5.48-24.69-3.13s-29.7,3-39.88,3.13c-13.36.17-15.45-5.48-24.69-3.13s-40.27-4.31-40.27-4.31,31-2.08,40.27-8.32,11.33,11.44,24.69,11c10.18-.34,30.64-4.75,39.88-11s11.33,11.44,24.69,11c10.18-.34,30.64-4.75,39.88-11s11.32,11.44,24.69,11c10.17-.34,30.63-4.75,39.87-11s11.33,11.44,24.69,11c10.18-.34,30.64-4.75,39.88-11s11.32,11.44,24.69,11c10.17-.34,30.62-4.75,39.86-11S425.7,412.86,439.07,412.86Z" style="fill:#fff;opacity:0.7000000000000001"></path></g><g id="freepik--Birds--inject-6"><path d="M95.61,156.55s-.36-4.52-3.36-6.37S85.14,143,85.14,143s-2.64,2.68-1.32,5,6.3,4.67,5.35,7.19Z" style="fill:#1B5AA7"></path><path d="M95.61,156.55s-.36-4.52-3.36-6.37S85.14,143,85.14,143s-2.64,2.68-1.32,5,6.3,4.67,5.35,7.19Z" style="fill:#fff;opacity:0.6000000000000001"></path><path d="M84.72,155.1a2.93,2.93,0,0,1,3.89-1.43,7.54,7.54,0,0,0,4.88.17s3.72-5.77,7.72-6.73,11.58-5.92,11.58-5.92.28,4.84-2.59,7.2c-2.42,2-7.65,3.9-9.87,6.74a1.29,1.29,0,0,0,.74,2L107,158.9s-2.93,1.1-3.28,2.18-2.29.13-2.29.13L98,159.86s-7,2.83-9.24-2.93C88.8,156.93,83.42,157.85,84.72,155.1Z" style="fill:#1B5AA7"></path><path d="M84.72,155.1a2.93,2.93,0,0,1,3.89-1.43,7.54,7.54,0,0,0,4.88.17s3.72-5.77,7.72-6.73,11.58-5.92,11.58-5.92.28,4.84-2.59,7.2c-2.42,2-7.65,3.9-9.87,6.74a1.29,1.29,0,0,0,.74,2L107,158.9s-2.93,1.1-3.28,2.18-2.29.13-2.29.13L98,159.86s-7,2.83-9.24-2.93C88.8,156.93,83.42,157.85,84.72,155.1Z" style="fill:#fff;opacity:0.8"></path><path d="M84.7,155.31s-2.39.41-2.3,1.18c0,.32,2.61.14,2.61.14s1.87-.39,1.84-.75S85.13,155.51,84.7,155.31Z" style="fill:#1B5AA7"></path><path d="M106.83,150.52a26.22,26.22,0,0,0,3.37-2.13c2.87-2.36,2.59-7.2,2.59-7.2s-1.31.86-3.14,1.93A14.26,14.26,0,0,1,106.83,150.52Z" style="fill:#263238"></path><path d="M85.53,145.54c.12-.47,1-.25,1.89.18-1.32-1.49-2.28-2.72-2.28-2.72s-2.64,2.68-1.32,5a15.12,15.12,0,0,0,3,3C84.45,146.83,85.22,146.67,85.53,145.54Z" style="fill:#263238"></path><path d="M86.46,154.74c0,.24.09.44.24.45s.3-.16.32-.4-.08-.44-.24-.45S86.48,154.5,86.46,154.74Z" style="fill:#263238"></path><path d="M86.17,154.07a.11.11,0,0,0,.13,0,1.27,1.27,0,0,1,1,.11.13.13,0,0,0,.16,0,.12.12,0,0,0-.05-.16,1.58,1.58,0,0,0-1.26-.12.11.11,0,0,0,0,.15S86.16,154.06,86.17,154.07Z" style="fill:#263238"></path><path d="M419.07,250.31s-.5-4.68-2.64-6.5-5.24-7.19-5.24-7.19-1.67,2.87-.64,5.19,4.55,4.63,4,7.28Z" style="fill:#1B5AA7"></path><path d="M419.07,250.31s-.5-4.68-2.64-6.5-5.24-7.19-5.24-7.19-1.67,2.87-.64,5.19,4.55,4.63,4,7.28Z" style="fill:#fff;opacity:0.6000000000000001"></path><path d="M412.25,249.67a2,2,0,0,1,2.6-1.12,5.18,5.18,0,0,0,3.34-.05s2.34-4.08,5-4.87,7.71-4.46,7.71-4.46.36,3.31-1.52,5c-1.58,1.45-5.09,2.94-6.51,5a.88.88,0,0,0,.58,1.36l4.12,1s-2,.86-2.16,1.6-1.56.17-1.56.17l-2.37-.8s-4.66,2.18-6.42-1.67C415.1,250.78,411.45,251.59,412.25,249.67Z" style="fill:#1B5AA7"></path><path d="M412.25,249.67a2,2,0,0,1,2.6-1.12,5.18,5.18,0,0,0,3.34-.05s2.34-4.08,5-4.87,7.71-4.46,7.71-4.46.36,3.31-1.52,5c-1.58,1.45-5.09,2.94-6.51,5a.88.88,0,0,0,.58,1.36l4.12,1s-2,.86-2.16,1.6-1.56.17-1.56.17l-2.37-.8s-4.66,2.18-6.42-1.67C415.1,250.78,411.45,251.59,412.25,249.67Z" style="fill:#fff;opacity:0.8"></path><path d="M412.24,249.81s-1.62.37-1.53.89c0,.21,1.78,0,1.78,0s1.27-.33,1.24-.58S412.54,249.93,412.24,249.81Z" style="fill:#1B5AA7"></path><path d="M427.19,245.76a16.92,16.92,0,0,0,2.23-1.58c1.88-1.7,1.52-5,1.52-5s-.87.64-2.08,1.44A9.74,9.74,0,0,1,427.19,245.76Z" style="fill:#263238"></path><path d="M411.59,239.24c.06-.49.64-.29,1.3.12-1-1.5-1.7-2.74-1.7-2.74s-1.67,2.87-.64,5.19a14.67,14.67,0,0,0,2.2,3C410.92,240.62,411.44,240.42,411.59,239.24Z" style="fill:#263238"></path><path d="M413.42,249.36c0,.16.08.29.18.3s.2-.12.21-.29-.08-.29-.18-.3S413.43,249.2,413.42,249.36Z" style="fill:#263238"></path><path d="M413.2,248.91a.06.06,0,0,0,.09,0,.92.92,0,0,1,.72,0,.08.08,0,0,0,.11,0,.08.08,0,0,0,0-.1,1,1,0,0,0-.86,0,.07.07,0,0,0,0,.1S413.19,248.91,413.2,248.91Z" style="fill:#263238"></path></g></svg>
